<svg width="48" height="36" viewBox="0 0 48 36" fill="none" xmlns="http://www.w3.org/2000/svg">
<path d="M9.75 28.25C9.30499 28.25 8.86998 28.382 8.49997 28.6292C8.12996 28.8764 7.84157 29.2278 7.67127 29.639C7.50097 30.0501 7.45642 30.5025 7.54323 30.939C7.63005 31.3754 7.84434 31.7763 8.15901 32.091C8.47368 32.4057 8.87459 32.62 9.31105 32.7068C9.7475 32.7936 10.1999 32.749 10.611 32.5787C11.0222 32.4084 11.3736 32.12 11.6208 31.75C11.868 31.38 12 30.945 12 30.5C11.9993 29.9035 11.7621 29.3316 11.3402 28.9098C10.9184 28.4879 10.3465 28.2507 9.75 28.25ZM9.75 31.25C9.60166 31.25 9.45666 31.206 9.33332 31.1236C9.20999 31.0412 9.11386 30.9241 9.05709 30.787C9.00032 30.65 8.98547 30.4992 9.01441 30.3537C9.04335 30.2082 9.11478 30.0746 9.21967 29.9697C9.32456 29.8648 9.4582 29.7934 9.60368 29.7644C9.74917 29.7355 9.89997 29.7503 10.037 29.8071C10.1741 29.8639 10.2912 29.96 10.3736 30.0833C10.456 30.2067 10.5 30.3517 10.5 30.5C10.4998 30.6988 10.4207 30.8895 10.2801 31.0301C10.1395 31.1707 9.94884 31.2498 9.75 31.25Z" fill="#23242D"/>
<path d="M38.25 28.25C37.805 28.25 37.37 28.382 37 28.6292C36.63 28.8764 36.3416 29.2278 36.1713 29.639C36.001 30.0501 35.9564 30.5025 36.0432 30.939C36.1301 31.3754 36.3443 31.7763 36.659 32.091C36.9737 32.4057 37.3746 32.62 37.8111 32.7068C38.2475 32.7936 38.6999 32.749 39.111 32.5787C39.5222 32.4084 39.8736 32.12 40.1208 31.75C40.368 31.38 40.5 30.945 40.5 30.5C40.4993 29.9035 40.2621 29.3316 39.8403 28.9098C39.4184 28.4879 38.8465 28.2507 38.25 28.25ZM38.25 31.25C38.1017 31.25 37.9567 31.206 37.8333 31.1236C37.71 31.0412 37.6139 30.9241 37.5571 30.787C37.5003 30.65 37.4855 30.4992 37.5144 30.3537C37.5434 30.2082 37.6148 30.0746 37.7197 29.9697C37.8246 29.8648 37.9582 29.7934 38.1037 29.7644C38.2492 29.7355 38.4 29.7503 38.537 29.8071C38.6741 29.8639 38.7912 29.96 38.8736 30.0833C38.956 30.2067 39 30.3517 39 30.5C38.9998 30.6988 38.9207 30.8895 38.7801 31.0301C38.6395 31.1707 38.4488 31.2498 38.25 31.25Z" fill="#23242D"/>
<path d="M47.1309 18.0941L40.3809 7.59406C40.313 7.48848 40.2196 7.40165 40.1094 7.34154C39.9991 7.28143 39.8756 7.24995 39.75 7.25H30.75V3.125C30.7492 2.42904 30.4724 1.76181 29.9803 1.26969C29.4882 0.777578 28.821 0.500769 28.125 0.5H3.375C2.67904 0.500769 2.01181 0.777578 1.51969 1.26969C1.02758 1.76181 0.750769 2.42904 0.75 3.125V30.5C0.75 30.6989 0.829018 30.8897 0.96967 31.0303C1.11032 31.171 1.30109 31.25 1.5 31.25H4.55437C4.73466 32.4994 5.35913 33.642 6.31336 34.4684C7.26758 35.2948 8.48766 35.7497 9.75 35.7497C11.0123 35.7497 12.2324 35.2948 13.1866 34.4684C14.1409 33.642 14.7653 32.4994 14.9456 31.25H33.0544C33.2347 32.4994 33.8591 33.642 34.8134 34.4684C35.7676 35.2948 36.9877 35.7497 38.25 35.7497C39.5123 35.7497 40.7324 35.2948 41.6866 34.4684C42.6409 33.642 43.2653 32.4994 43.4456 31.25H46.5C46.6989 31.25 46.8897 31.171 47.0303 31.0303C47.171 30.8897 47.25 30.6989 47.25 30.5V18.5C47.25 18.3561 47.2087 18.2152 47.1309 18.0941ZM9.75 34.25C9.00832 34.25 8.2833 34.0301 7.66661 33.618C7.04993 33.206 6.56928 32.6203 6.28545 31.9351C6.00162 31.2498 5.92736 30.4958 6.07205 29.7684C6.21675 29.041 6.5739 28.3728 7.09835 27.8483C7.6228 27.3239 8.29098 26.9667 9.01841 26.8221C9.74584 26.6774 10.4998 26.7516 11.1851 27.0354C11.8703 27.3193 12.456 27.7999 12.868 28.4166C13.2801 29.0333 13.5 29.7583 13.5 30.5C13.499 31.4943 13.1036 32.4475 12.4006 33.1506C11.6975 33.8536 10.7443 34.249 9.75 34.25ZM29.25 29.75H14.9456C14.7653 28.5006 14.1409 27.358 13.1866 26.5316C12.2324 25.7052 11.0123 25.2503 9.75 25.2503C8.48766 25.2503 7.26758 25.7052 6.31336 26.5316C5.35913 27.358 4.73466 28.5006 4.55437 29.75H2.25V22.25H29.25V29.75ZM29.25 20.75H2.25V3.125C2.25025 2.82671 2.36885 2.5407 2.57978 2.32978C2.7907 2.11885 3.07671 2.00025 3.375 2H28.125C28.4233 2.00025 28.7093 2.11885 28.9202 2.32978C29.1311 2.5407 29.2498 2.82671 29.25 3.125V20.75ZM40.7869 11L45.1266 17.75H34.5V11H40.7869ZM38.25 34.25C37.5083 34.25 36.7833 34.0301 36.1666 33.618C35.5499 33.206 35.0693 32.6203 34.7854 31.9351C34.5016 31.2498 34.4274 30.4958 34.5721 29.7684C34.7167 29.041 35.0739 28.3728 35.5983 27.8483C36.1228 27.3239 36.791 26.9667 37.5184 26.8221C38.2458 26.6774 38.9998 26.7516 39.6851 27.0354C40.3703 27.3193 40.956 27.7999 41.368 28.4166C41.7801 29.0333 42 29.7583 42 30.5C41.999 31.4943 41.6036 32.4475 40.9006 33.1506C40.1975 33.8536 39.2443 34.249 38.25 34.25ZM45.75 23.75H44.25C44.0511 23.75 43.8603 23.671 43.7197 23.5303C43.579 23.3897 43.5 23.1989 43.5 23C43.5 22.8011 43.579 22.6103 43.7197 22.4697C43.8603 22.329 44.0511 22.25 44.25 22.25H45.75V23.75ZM45.75 20.75H44.25C43.6533 20.75 43.081 20.9871 42.659 21.409C42.2371 21.831 42 22.4033 42 23C42 23.5967 42.2371 24.169 42.659 24.591C43.081 25.0129 43.6533 25.25 44.25 25.25H45.75V29.75H43.4456C43.2653 28.5006 42.6409 27.358 41.6866 26.5316C40.7324 25.7052 39.5123 25.2503 38.25 25.2503C36.9877 25.2503 35.7676 25.7052 34.8134 26.5316C33.8591 27.358 33.2347 28.5006 33.0544 29.75H30.75V8.75H39.3403L39.8231 9.5H33.75C33.5511 9.5 33.3603 9.57902 33.2197 9.71967C33.079 9.86032 33 10.0511 33 10.25V18.5C33 18.6989 33.079 18.8897 33.2197 19.0303C33.3603 19.171 33.5511 19.25 33.75 19.25H45.75V20.75Z" fill="#23242D"/>
<path d="M36 20.75H33.75C33.5511 20.75 33.3603 20.829 33.2197 20.9697C33.079 21.1103 33 21.3011 33 21.5C33 21.6989 33.079 21.8897 33.2197 22.0303C33.3603 22.171 33.5511 22.25 33.75 22.25H36C36.1989 22.25 36.3897 22.171 36.5303 22.0303C36.671 21.8897 36.75 21.6989 36.75 21.5C36.75 21.3011 36.671 21.1103 36.5303 20.9697C36.3897 20.829 36.1989 20.75 36 20.75Z" fill="#23242D"/>
<path d="M20.25 25.25H26.25C26.4489 25.25 26.6397 25.171 26.7803 25.0303C26.921 24.8897 27 24.6989 27 24.5C27 24.3011 26.921 24.1103 26.7803 23.9697C26.6397 23.829 26.4489 23.75 26.25 23.75H20.25C20.0511 23.75 19.8603 23.829 19.7197 23.9697C19.579 24.1103 19.5 24.3011 19.5 24.5C19.5 24.6989 19.579 24.8897 19.7197 25.0303C19.8603 25.171 20.0511 25.25 20.25 25.25Z" fill="#23242D"/>
<path d="M26.25 26H24C23.8011 26 23.6103 26.079 23.4697 26.2197C23.329 26.3603 23.25 26.5511 23.25 26.75C23.25 26.9489 23.329 27.1397 23.4697 27.2803C23.6103 27.421 23.8011 27.5 24 27.5H26.25C26.4489 27.5 26.6397 27.421 26.7803 27.2803C26.921 27.1397 27 26.9489 27 26.75C27 26.5511 26.921 26.3603 26.7803 26.2197C26.6397 26.079 26.4489 26 26.25 26Z" fill="#23242D"/>
</svg>
