<svg width="48" height="48" viewBox="0 0 48 48" fill="none" xmlns="http://www.w3.org/2000/svg">
<g clip-path="url(#clip0_56_10494)">
<path d="M47.794 0.209015C47.5193 -0.0657654 47.074 -0.0657654 46.7994 0.209015L44.2022 2.80625C43.7535 2.51329 43.2316 2.32307 42.6698 2.26935L27.233 0.792794C26.2183 0.695575 25.223 1.05342 24.5022 1.77416L8.66443 17.612C8.38974 17.8867 8.38974 18.3319 8.66443 18.6066C8.93912 18.8813 9.38443 18.8813 9.65902 18.6066L25.4968 2.76885C25.9197 2.34604 26.5036 2.13623 27.0991 2.19304L42.5357 3.6695C42.7599 3.69097 42.9724 3.75041 43.1687 3.83956L41.0897 5.91846C40.6225 5.63131 40.084 5.47737 39.5217 5.47737C38.7193 5.47737 37.965 5.78984 37.3977 6.35712C36.2265 7.52824 36.2264 9.43398 37.3977 10.6052C37.965 11.1726 38.7193 11.4849 39.5217 11.4849C40.324 11.4849 41.0783 11.1725 41.6456 10.6052C42.6456 9.60526 42.791 8.0703 42.0835 6.9138L44.1632 4.83415C44.2524 5.03046 44.3119 5.24309 44.3333 5.46715L45.8098 20.9039C45.8667 21.4993 45.6569 22.0831 45.2339 22.506C45.2339 22.506 21.743 45.9969 21.7162 46.0237C20.945 46.7949 19.6623 46.794 18.892 46.0237C18.892 46.0237 2.01636 29.148 1.97886 29.1105C1.2073 28.339 1.2088 27.0564 1.97877 26.2863L7.3704 20.8947C7.64509 20.62 7.64509 20.1748 7.3704 19.9001C7.09572 19.6254 6.65041 19.6254 6.37581 19.9001C6.37581 19.9001 0.986148 25.2898 0.984179 25.2917C-0.328691 26.6046 -0.327754 28.7932 0.984179 30.1051C0.984366 30.1052 17.8949 47.0158 17.8976 47.0185C19.1898 48.3106 21.3908 48.3388 22.711 47.0185L46.2288 23.5008C46.9496 22.7801 47.3073 21.7847 47.2103 20.77L45.7337 5.33337C45.68 4.77143 45.4897 4.24953 45.1968 3.80094L47.794 1.2037C48.0686 0.928918 48.0686 0.483608 47.794 0.209015ZM40.6511 9.6107C40.0351 10.2267 39.0078 10.2262 38.3923 9.6107C37.7696 8.98792 37.7696 7.97458 38.3923 7.35189C38.8197 6.92449 39.4665 6.77599 40.0378 6.97061L39.0245 7.98405C38.7498 8.25873 38.7498 8.70404 39.0245 8.97864C39.2961 9.25014 39.7477 9.25023 40.0192 8.97864L41.0317 7.96614C41.221 8.52423 41.0953 9.16651 40.6511 9.6107Z" fill="#23242D"/>
<path d="M41.9451 18.5196C41.9451 18.5196 29.4918 6.06626 29.4828 6.05726C28.1706 4.74514 25.98 4.74664 24.6694 6.05726C24.6694 6.05726 5.4535 25.2731 5.43532 25.2913C4.7861 25.9405 4.46182 26.8194 4.46191 27.6982C4.46201 28.5771 4.78666 29.456 5.43532 30.1047C5.43532 30.1047 17.8891 42.5585 17.8976 42.567C19.2098 43.8791 21.4001 43.878 22.711 42.567C22.711 42.567 41.9376 23.3404 41.9451 23.333C43.2576 22.0205 43.2565 19.831 41.9451 18.5196ZM40.9504 22.3384C40.9504 22.3384 21.744 41.5449 21.7163 41.5724C20.9449 42.3439 19.6623 42.3426 18.8921 41.5724C18.8921 41.5724 6.44003 29.1203 6.42981 29.1101C5.659 28.3391 5.65975 27.0561 6.42991 26.2859C6.42991 26.2859 25.6374 7.07838 25.664 7.05185C26.4353 6.28048 27.7174 6.28132 28.4881 7.05185C28.4881 7.05185 40.9288 19.4926 40.9504 19.5142C41.7174 20.281 41.7149 21.5738 40.9504 22.3384Z" fill="#23242D"/>
<path d="M27.3648 27.6814C25.724 26.0406 23.2713 26.2728 21.647 27.897L21.6139 27.9301C20.0229 29.5211 19.7742 31.9573 21.3983 33.5816C23.039 35.2224 25.5085 34.9737 27.116 33.3661L27.1492 33.3329C28.7403 31.7418 28.989 29.3055 27.3648 27.6814ZM25.6412 31.891L25.608 31.9242C24.7131 32.8191 23.4866 33.1173 22.7077 32.3384C21.962 31.5927 22.1774 30.3164 23.122 29.3718L23.1552 29.3386C24.0501 28.4437 25.2767 28.1454 26.0555 28.9244C26.8014 29.6701 26.5693 30.9629 25.6412 31.891Z" fill="#23242D"/>
<path d="M33.5634 22.1128C33.3313 21.8806 33.0164 21.7647 32.7017 21.8475L14.703 24.6318C14.5041 24.665 14.2887 24.7478 14.1229 24.9135C13.7583 25.2781 13.7583 25.8417 14.123 26.2064C14.355 26.4384 14.6697 26.5543 15.0012 26.4881L32.9998 23.7038C33.1987 23.6706 33.4142 23.5878 33.5799 23.4221C33.9445 23.0575 33.9279 22.4774 33.5634 22.1128Z" fill="#23242D"/>
<path d="M26.2876 14.7376C24.6468 13.0968 22.1939 13.3289 20.5698 14.953L20.5367 14.9862C18.9457 16.5772 18.6971 19.0135 20.3212 20.6377C21.9785 22.295 24.4313 22.0299 26.0389 20.4222L26.0721 20.389C27.6631 18.7981 27.9283 16.3783 26.2876 14.7376ZM24.5639 18.9471L24.5307 18.9803C23.6356 19.8754 22.4094 20.1736 21.6304 19.3946C20.8847 18.6487 21.1002 17.3726 22.0448 16.4281L22.078 16.3949C22.9728 15.5001 24.1993 15.2017 24.9782 15.9806C25.7241 16.7264 25.492 18.019 24.5639 18.9471Z" fill="#23242D"/>
</g>
<defs>
<clipPath id="clip0_56_10494">
<rect width="48" height="48" fill="white"/>
</clipPath>
</defs>
</svg>
