<svg width="38" height="48" viewBox="0 0 38 48" fill="none" xmlns="http://www.w3.org/2000/svg">
<path d="M37.3111 39.7286C37.2045 33.2052 30.5347 31.2778 25.6645 29.8706C25.0963 29.7064 24.5498 29.5484 24.0378 29.3907V26.6996C25.0334 26.0755 25.9059 25.2724 26.6096 24.3355H29.5763C31.028 24.3355 32.2092 23.1544 32.2092 21.7026V18.5155C32.3851 18.1053 32.4829 17.6538 32.4829 17.1797V16.1884C32.4829 15.7148 32.3851 15.2636 32.2092 14.8536V13.2094C32.2092 5.92577 26.2836 0 19 0C11.7179 0 5.79349 5.92577 5.79349 13.2095V14.8067C5.79349 14.8192 5.7949 14.8313 5.79536 14.8438C5.61668 15.2565 5.51711 15.711 5.51711 16.1885V17.1798C5.51711 19.0535 7.04037 20.578 8.91266 20.578H9.68741C10.224 23.1513 11.8038 25.346 13.9622 26.6992V29.3907C13.4501 29.5484 12.9037 29.7063 12.3355 29.8706C7.46534 31.2778 0.795563 33.2053 0.688875 39.7286C0.688782 39.7337 0.688782 39.7388 0.688782 39.744V47.0625C0.688782 47.5803 1.1086 48 1.62629 48H4.4058C4.92349 48 5.3433 47.5803 5.3433 47.0625C5.3433 46.5447 4.92349 46.125 4.4058 46.125H2.5637V39.7518C2.60316 37.4758 3.64867 35.7696 5.85377 34.3826C7.30887 33.4673 9.08778 32.8152 10.8413 32.2696L13.1064 36.6828C13.3589 37.1747 14.0053 37.3419 14.4646 37.032L15.4746 36.3507L16.3417 39.6097L14.8561 46.1249H12.8243C12.3066 46.1249 11.8868 46.5446 11.8868 47.0624C11.8868 47.5802 12.3066 47.9999 12.8243 47.9999H36.3737C36.8914 47.9999 37.3112 47.5802 37.3112 47.0624V39.7439C37.3112 39.7388 37.3112 39.7337 37.3111 39.7286ZM25.144 31.6718C25.2058 31.6896 25.2686 31.7079 25.3309 31.7259L23.7102 34.8866L20.6773 32.8414L23.2471 31.1081C23.8441 31.2959 24.479 31.4796 25.144 31.6718ZM19.0007 33.9723L20.8806 35.24L19.972 38.655H18.028L17.1198 35.241L19.0007 33.9723ZM19.0005 31.7108L15.8372 29.5777V27.604C16.8273 27.9542 17.8914 28.1463 18.9999 28.1463C20.1083 28.1463 21.1727 27.9549 22.1627 27.6047V29.5777L19.0005 31.7108ZM26.6378 13.381C26.6249 13.3728 26.6122 13.3647 26.5993 13.3565C24.6757 12.132 23.0142 11.0744 20.411 11.8192C20.3868 11.8261 20.3628 11.834 20.3392 11.8428C19.7873 12.0501 19.2855 12.2433 18.8 12.4302C15.8354 13.5714 14.2167 14.1946 11.3622 14.1144V13.3636C11.3622 9.15201 14.7885 5.72562 18.9999 5.72562C23.2114 5.72562 26.6377 9.15201 26.6377 13.3636V13.381H26.6378ZM30.3342 21.7026C30.3342 22.1206 29.9942 22.4605 29.5763 22.4605H27.708C27.9718 21.8625 28.1762 21.2326 28.3127 20.5779H29.0875C29.5276 20.5779 29.9479 20.4928 30.3342 20.3395V21.7026H30.3342ZM30.6079 17.1797C30.6079 18.0196 29.9259 18.7029 29.0874 18.7029H28.5119C28.5121 18.6797 28.5129 14.6678 28.5129 14.6678H29.0875C29.9259 14.6678 30.608 15.3499 30.608 16.1884V17.1797H30.6079ZM8.91266 18.703C8.07425 18.703 7.39212 18.0197 7.39212 17.1798V16.1885C7.39212 15.35 8.07415 14.6679 8.91266 14.6679H9.48725C9.48725 14.6679 9.488 18.6798 9.48819 18.703H8.91266ZM9.50478 12.7928H8.91256C8.47428 12.7928 8.05569 12.8772 7.67075 13.0291C7.76759 6.86215 12.8121 1.87501 19 1.87501C25.1897 1.87501 30.2356 6.86271 30.3318 13.0301C29.9462 12.8776 29.5266 12.7928 29.0874 12.7928H28.4951C28.1989 7.81203 24.0536 3.85061 19 3.85061C13.9463 3.85061 9.80104 7.81212 9.50478 12.7928ZM11.4186 19.5454C11.4185 19.5444 11.4183 19.5435 11.4182 19.5425C11.3827 19.2441 11.3623 18.9411 11.3623 18.6334V15.9893C14.5697 16.0675 16.4831 15.3314 19.4736 14.1801C19.9446 13.9988 20.4315 13.8114 20.9618 13.612C22.7328 13.1176 23.7517 13.7665 25.5924 14.9383C25.9118 15.1416 26.2622 15.3645 26.6378 15.5933V18.6334C26.6378 20.0275 26.2605 21.3344 25.6055 22.4606H19C18.4823 22.4606 18.0625 22.8803 18.0625 23.3981C18.0625 23.9159 18.4823 24.3356 19 24.3356H24.0742C22.724 25.5385 20.9463 26.2714 19 26.2714C15.0973 26.2713 11.871 23.3283 11.4186 19.5454ZM14.2921 34.8867L12.6696 31.7257C12.7317 31.7078 12.7943 31.6896 12.856 31.6718C13.5211 31.4796 14.1559 31.2958 14.7531 31.108L17.3239 32.8416L14.2921 34.8867ZM16.7793 46.125L18.0551 40.53H19.9452L21.223 46.125H16.7793ZM35.4362 46.125H23.1463L21.6583 39.6096L22.5258 36.3494L23.5382 37.0321C23.9978 37.3419 24.6442 37.1747 24.8965 36.6826L27.1591 32.2698C28.9125 32.8153 30.6913 33.4674 32.1463 34.3826C34.3514 35.7695 35.397 37.4758 35.4364 39.7518V46.125H35.4362Z" fill="#23242D"/>
<path d="M31.734 41.437H27.0093C26.4916 41.437 26.0718 41.8567 26.0718 42.3745C26.0718 42.8923 26.4916 43.312 27.0093 43.312H31.734C32.2517 43.312 32.6715 42.8923 32.6715 42.3745C32.6715 41.8567 32.2518 41.437 31.734 41.437Z" fill="#23242D"/>
<path d="M8.61511 46.125C8.09742 46.125 7.67761 46.5447 7.67761 47.0625C7.67761 47.5803 8.09742 48 8.61511 48H8.61774C9.13542 48 9.55383 47.5803 9.55383 47.0625C9.55383 46.5447 9.1328 46.125 8.61511 46.125Z" fill="#23242D"/>
</svg>
