<svg width="48" height="48" viewBox="0 0 48 48" fill="none" xmlns="http://www.w3.org/2000/svg">
<g clip-path="url(#clip0_56_10450)">
<path d="M31.5789 26.3999C28.9665 26.3999 26.842 28.5527 26.842 31.1999C26.842 33.8471 28.9665 35.9999 31.5789 35.9999C34.1913 35.9999 36.3157 33.8471 36.3157 31.1999C36.3157 28.5527 34.1913 26.3999 31.5789 26.3999ZM31.5789 34.3999C29.8373 34.3999 28.421 32.9647 28.421 31.1999C28.421 29.4351 29.8374 27.9999 31.5789 27.9999C33.3205 27.9999 34.7368 29.4352 34.7368 31.1999C34.7368 32.9647 33.3205 34.3999 31.5789 34.3999Z" fill="#23242D"/>
<path d="M33.1579 34.3999V37.7055L32.0164 36.9343C31.7511 36.7543 31.4061 36.7543 31.1408 36.9343L30 37.7055V34.3999H28.4211V39.1999C28.4211 39.4951 28.5813 39.7663 28.8387 39.9055C29.0945 40.0447 29.4071 40.0287 29.6487 39.8654L31.5789 38.5615L33.5092 39.8654C33.641 39.9542 33.7943 39.9999 33.9474 39.9999C34.0752 39.9999 34.2032 39.9687 34.32 39.9055C34.5766 39.7662 34.7369 39.495 34.7369 39.1999V34.3999H33.1579Z" fill="#23242D"/>
<path d="M28.421 8H18.1579V9.60003H28.421V8Z" fill="#23242D"/>
<path d="M36.3159 12.8H11.0527V14.4001H36.3159V12.8Z" fill="#23242D"/>
<path d="M28.4211 17.6001H11.0527V19.2001H28.4211V17.6001Z" fill="#23242D"/>
<path d="M36.3158 17.6001H31.5789V19.2001H36.3158V17.6001Z" fill="#23242D"/>
<path d="M36.3159 22.3999H11.0527V23.9999H36.3159V22.3999Z" fill="#23242D"/>
<path d="M20.5264 27.2H11.0527V28.8H20.5264V27.2Z" fill="#23242D"/>
<path d="M15.0001 31.2H11.0527V32.8H15.0001V31.2Z" fill="#23242D"/>
<path d="M20.5263 31.2H18.1579V32.8H20.5263V31.2Z" fill="#23242D"/>
<path d="M43.421 0C41.2445 0 39.4736 1.79437 39.4736 4.00003V5.60006C39.4736 6.04163 39.8265 6.40003 40.2631 6.40003H46.5789C47.0155 6.40003 47.3683 6.04163 47.3683 5.60006V4.00003C47.3684 1.79437 45.5977 0 43.421 0ZM45.7895 4.8H41.0526V4.00003C41.0526 2.67684 42.1153 1.60003 43.421 1.60003C44.7268 1.60003 45.7895 2.67684 45.7895 4.00003V4.8Z" fill="#23242D"/>
<path d="M43.421 0H10.2631C8.08656 0 6.3158 1.79437 6.3158 4.00003V42.4H7.89477V4.00003C7.89477 2.67684 8.95742 1.60003 10.2632 1.60003H40.2648C39.7683 2.26884 39.4738 3.10003 39.4738 4.00003V44.0001C39.4738 45.3232 38.4111 46.4001 37.1054 46.4001H7.10524V48H37.1053C39.2818 48 41.0527 46.2056 41.0527 44V4.00003C41.0527 2.67684 42.1153 1.60003 43.4211 1.60003C43.8577 1.60003 44.2105 1.24163 44.2105 0.800063C44.2105 0.3585 43.8576 0 43.421 0Z" fill="#23242D"/>
<path d="M37.1053 46.4001C35.7995 46.4001 34.7369 45.3233 34.7369 44.0001V42.4001C34.7369 41.9577 34.384 41.6001 33.9474 41.6001H0.789443C0.35369 41.6001 0 41.9577 0 42.4001V44.0001C0 46.2057 1.77076 48.0001 3.9474 48.0001H37.1053C37.5419 48.0001 37.8947 47.6426 37.8947 47.2002C37.8947 46.7577 37.5419 46.4001 37.1053 46.4001ZM3.9474 46.4001C2.64162 46.4001 1.57898 45.3233 1.57898 44.0001V43.2001H33.1579V44.0001C33.1579 44.9001 33.4524 45.7313 33.9489 46.4001H3.9474Z" fill="#23242D"/>
</g>
<defs>
<clipPath id="clip0_56_10450">
<rect width="48" height="48" fill="white"/>
</clipPath>
</defs>
</svg>
