<svg width="153" height="56" viewBox="0 0 153 56" fill="none" xmlns="http://www.w3.org/2000/svg">
<path fill-rule="evenodd" clip-rule="evenodd" d="M0 0.48333H11.5289H55.7033L48.1017 10.3121H11.5289V14.6097H44.6951L38.1645 23.4119H11.5289V28.1463H38.5066L54.8331 7.17116C57.9496 3.17225 59.3554 0.843387 64.7703 0.169242C66.9273 -0.0988843 70.1182 0.215205 70.5347 3.065C70.5719 3.31781 73.3909 23.1668 73.3909 23.1668L85.8868 7.32437C89.4942 2.62068 91.9116 -0.321047 98.1372 0.0390081C98.8141 0.0773118 99.424 0.215203 99.9 0.544615C101.09 1.36431 101.663 2.89647 101.685 3.23354C101.707 3.53231 104.296 25.465 104.854 30.1993H92.6777L91.4207 14.4412L86.9951 20.1638C82.7777 25.6182 74.5141 38.5955 68.1694 38.5955C64.2794 38.5955 62.7099 33.7999 61.9364 28.8204L61.1851 23.9712L59.8537 15.4065L43.4083 38.0363H11.5289H0V28.1309V23.3966V14.6097V10.3121V0.48333Z" fill="#323C92"/>
<path fill-rule="evenodd" clip-rule="evenodd" d="M131.065 37.9819V41.5595H146.38V32.5888H152.948V41.5595V46.945V55.9387H146.38V50.5456V46.945H124.497V32.5888H131.065V37.9819ZM93.3248 32.5888V37.9819H115.215V41.5595H93.3322V55.9387H121.79V50.5456H99.9074V46.945H121.79V32.5888H93.3248Z" fill="#323C92"/>
<path fill-rule="evenodd" clip-rule="evenodd" d="M152.955 10.3114V7.43857V0.49029H145.331L138.392 12.2342L146.983 12.4947L127.941 30.2063H152.955V10.3114ZM139.269 0.482627L123.062 15.5896L131.653 15.988L123.159 30.1986H108.394C107.866 25.7094 107.331 21.2202 106.802 16.7234C106.26 12.1269 105.657 7.4922 105.181 2.8881C105.107 2.09904 104.817 1.26402 104.393 0.474968H139.269V0.482627Z" fill="#323C92"/>
<path fill-rule="evenodd" clip-rule="evenodd" d="M0 41.5672H4.00165V55.9464H0V41.5672ZM14.1248 41.5672H19.7107V55.9464H14.1248V41.5672ZM27.1785 41.5672H33.0322V55.9464H27.1785V41.5672ZM39.5926 41.5672H46.0488V55.9464H39.5926V41.5672ZM50.5041 41.5672H57.2058V55.9464H50.5041V41.5672ZM61.2893 41.5672H67.805V55.9464H61.2893V41.5672ZM71.1223 41.5672H78.114V55.9464H71.1223V41.5672ZM80.6727 41.5672H89.2339V55.9464H80.6727V41.5672Z" fill="#323C92"/>
</svg>
