<svg width="21" height="20" viewBox="0 0 21 20" fill="none" xmlns="http://www.w3.org/2000/svg">
<path d="M20.7189 18.3126L17.0089 14.6326C18.449 12.837 19.1464 10.5579 18.9577 8.26385C18.7691 5.96985 17.7086 3.83533 15.9945 2.2992C14.2803 0.763058 12.0427 -0.0579377 9.74186 0.00502273C7.44098 0.0679831 5.25166 1.01011 3.62408 2.63769C1.9965 4.26527 1.05437 6.45459 0.991408 8.75548C0.928448 11.0564 1.74944 13.2939 3.28558 15.0081C4.82172 16.7222 6.95624 17.7827 9.25024 17.9714C11.5442 18.1601 13.8233 17.4627 15.6189 16.0226L19.2989 19.7026C19.3919 19.7963 19.5025 19.8707 19.6244 19.9214C19.7462 19.9722 19.8769 19.9984 20.0089 19.9984C20.1409 19.9984 20.2717 19.9722 20.3935 19.9214C20.5154 19.8707 20.626 19.7963 20.7189 19.7026C20.8992 19.5161 20.9999 19.2669 20.9999 19.0076C20.9999 18.7482 20.8992 18.499 20.7189 18.3126V18.3126ZM10.0089 16.0226C8.62447 16.0226 7.27109 15.612 6.11995 14.8428C4.9688 14.0737 4.07159 12.9804 3.54178 11.7013C3.01197 10.4223 2.87334 9.01479 3.14344 7.65692C3.41354 6.29905 4.08022 5.05177 5.05919 4.0728C6.03816 3.09384 7.28544 2.42715 8.64331 2.15706C10.0012 1.88696 11.4086 2.02558 12.6877 2.5554C13.9668 3.08521 15.0601 3.98242 15.8292 5.13356C16.5984 6.2847 17.0089 7.63808 17.0089 9.02255C17.0089 10.8791 16.2714 12.6595 14.9587 13.9723C13.6459 15.2851 11.8655 16.0226 10.0089 16.0226V16.0226Z" fill="#BBBBBB"/>
</svg>
