<svg width="36" height="36" viewBox="0 0 36 36" fill="none" xmlns="http://www.w3.org/2000/svg">
<path d="M32.5964 30.4664L27.0314 24.9464C29.1915 22.253 30.2376 18.8343 29.9546 15.3933C29.6715 11.9523 28.0809 8.75052 25.5096 6.44632C22.9384 4.14211 19.5821 2.91062 16.1307 3.00506C12.6794 3.0995 9.39543 4.51269 6.95406 6.95406C4.51269 9.39543 3.0995 12.6794 3.00506 16.1307C2.91062 19.5821 4.14211 22.9384 6.44632 25.5096C8.75052 28.0809 11.9523 29.6715 15.3933 29.9546C18.8343 30.2376 22.253 29.1915 24.9464 27.0314L30.4664 32.5514C30.6058 32.6919 30.7717 32.8035 30.9545 32.8797C31.1373 32.9558 31.3333 32.995 31.5314 32.995C31.7294 32.995 31.9254 32.9558 32.1082 32.8797C32.291 32.8035 32.4569 32.6919 32.5964 32.5514C32.8667 32.2717 33.0178 31.8979 33.0178 31.5089C33.0178 31.1198 32.8667 30.7461 32.5964 30.4664ZM16.5314 27.0314C14.4546 27.0314 12.4246 26.4155 10.6979 25.2618C8.97115 24.108 7.62534 22.4682 6.83062 20.5495C6.0359 18.6309 5.82796 16.5197 6.23311 14.4829C6.63825 12.4461 7.63828 10.5752 9.10673 9.10673C10.5752 7.63828 12.4461 6.63825 14.4829 6.23311C16.5197 5.82796 18.6309 6.0359 20.5495 6.83062C22.4682 7.62534 24.108 8.97115 25.2618 10.6979C26.4155 12.4246 27.0314 14.4546 27.0314 16.5314C27.0314 19.3161 25.9251 21.9868 23.956 23.956C21.9868 25.9251 19.3161 27.0314 16.5314 27.0314Z" fill="white"/>
</svg>
