<svg width="36" height="36" viewBox="0 0 36 36" fill="none" xmlns="http://www.w3.org/2000/svg">
<path d="M14.25 33C15.4926 33 16.5 31.9926 16.5 30.75C16.5 29.5074 15.4926 28.5 14.25 28.5C13.0074 28.5 12 29.5074 12 30.75C12 31.9926 13.0074 33 14.25 33Z" fill="white"/>
<path d="M29.25 33C30.4926 33 31.5 31.9926 31.5 30.75C31.5 29.5074 30.4926 28.5 29.25 28.5C28.0074 28.5 27 29.5074 27 30.75C27 31.9926 28.0074 33 29.25 33Z" fill="white"/>
<path d="M1.5 1.5H7.5L11.52 21.585C11.6572 22.2756 12.0329 22.8959 12.5813 23.3374C13.1298 23.779 13.816 24.0135 14.52 24H29.1C29.804 24.0135 30.4902 23.779 31.0387 23.3374C31.5871 22.8959 31.9628 22.2756 32.1 21.585L34.5 9H9" stroke="white" stroke-width="2" stroke-linecap="round" stroke-linejoin="round"/>
</svg>
